<mxfile host="app.diagrams.net" modified="2023-10-18T21:16:03.980Z" agent="Mozilla/5.0 (X11; Linux x86_64) AppleWebKit/537.36 (KHTML, like Gecko) Chrome/117.0.0.0 Safari/537.36" etag="ODm-pNh_BW1Ho-2iEsS5" version="21.7.5" type="device">
  <diagram id="C5RBs43oDa-KdzZeNtuy" name="Page-1">
    <mxGraphModel dx="1296" dy="980" grid="1" gridSize="10" guides="1" tooltips="1" connect="1" arrows="1" fold="1" page="1" pageScale="1" pageWidth="1169" pageHeight="827" background="#1C1C1C" math="0" shadow="0">
      <root>
        <mxCell id="WIyWlLk6GJQsqaUBKTNV-0" />
        <mxCell id="WIyWlLk6GJQsqaUBKTNV-1" parent="WIyWlLk6GJQsqaUBKTNV-0" />
        <mxCell id="ozyOs6aiq1wP1_BL-jvp-28" value="" style="rounded=1;whiteSpace=wrap;html=1;" parent="WIyWlLk6GJQsqaUBKTNV-1" vertex="1">
          <mxGeometry x="540" y="480" width="442.5" height="120" as="geometry" />
        </mxCell>
        <mxCell id="ozyOs6aiq1wP1_BL-jvp-2" value="" style="edgeStyle=orthogonalEdgeStyle;rounded=0;orthogonalLoop=1;jettySize=auto;html=1;endArrow=classic;endFill=1;startArrow=classic;startFill=1;fillColor=#e51400;strokeColor=#B20000;strokeWidth=5;" parent="WIyWlLk6GJQsqaUBKTNV-1" source="ozyOs6aiq1wP1_BL-jvp-0" target="ozyOs6aiq1wP1_BL-jvp-1" edge="1">
          <mxGeometry relative="1" as="geometry" />
        </mxCell>
        <mxCell id="ozyOs6aiq1wP1_BL-jvp-0" value="&lt;br&gt;&lt;br&gt;&lt;span style=&quot;white-space: pre;&quot;&gt;&lt;span style=&quot;white-space: pre;&quot;&gt;&#x9;&lt;/span&gt;&#x9;&lt;/span&gt;&#39;can-ui&#39;&lt;br&gt;&lt;br&gt;&amp;nbsp; Web Client&lt;br&gt;&amp;nbsp; (react,typescript,vite)&lt;br&gt;&lt;br&gt;&lt;span style=&quot;background-color: initial;&quot;&gt;&amp;nbsp; &amp;nbsp;DIO_IN = /can/1&lt;/span&gt;&lt;br&gt;&lt;span style=&quot;background-color: initial;&quot;&gt;&amp;nbsp; &amp;nbsp;DAC_IN = /can/2&lt;/span&gt;&lt;br&gt;&lt;span style=&quot;background-color: initial;&quot;&gt;&amp;nbsp; &amp;nbsp;Device_OUT = /can/3&lt;/span&gt;&lt;br&gt;&lt;br&gt;&lt;div style=&quot;&quot;&gt;&lt;br&gt;&lt;/div&gt;" style="rounded=1;whiteSpace=wrap;html=1;align=left;verticalAlign=top;" parent="WIyWlLk6GJQsqaUBKTNV-1" vertex="1">
          <mxGeometry x="80" y="160" width="160" height="240" as="geometry" />
        </mxCell>
        <mxCell id="ozyOs6aiq1wP1_BL-jvp-1" value="&amp;nbsp;&amp;nbsp;&lt;br&gt;&lt;span style=&quot;white-space: pre;&quot;&gt;&lt;span style=&quot;white-space: pre;&quot;&gt;&#x9;&lt;/span&gt;&#x9;&lt;/span&gt;&#39;api&#39;&lt;br&gt;&lt;br&gt;&amp;nbsp; API Endpoint&lt;br&gt;&amp;nbsp; (go + gorilla)&lt;br&gt;&lt;br&gt;&lt;span style=&quot;background-color: initial;&quot;&gt;&amp;nbsp; &amp;nbsp;DIO_IN = /can/1&lt;/span&gt;&lt;br&gt;&lt;span style=&quot;background-color: initial;&quot;&gt;&amp;nbsp; &amp;nbsp;DAC_IN = /can/2&lt;/span&gt;&lt;br&gt;&lt;span style=&quot;background-color: initial;&quot;&gt;&amp;nbsp; &amp;nbsp;Device_OUT = /can/3&lt;/span&gt;&lt;br&gt;&lt;div style=&quot;&quot;&gt;&lt;br&gt;&lt;/div&gt;" style="rounded=1;whiteSpace=wrap;html=1;align=left;verticalAlign=top;" parent="WIyWlLk6GJQsqaUBKTNV-1" vertex="1">
          <mxGeometry x="320" y="160" width="160" height="240" as="geometry" />
        </mxCell>
        <mxCell id="ozyOs6aiq1wP1_BL-jvp-4" style="edgeStyle=orthogonalEdgeStyle;rounded=0;orthogonalLoop=1;jettySize=auto;html=1;entryX=1;entryY=0.25;entryDx=0;entryDy=0;startArrow=classic;startFill=1;fillColor=#e51400;strokeColor=#B20000;strokeWidth=4;" parent="WIyWlLk6GJQsqaUBKTNV-1" source="ozyOs6aiq1wP1_BL-jvp-3" target="ozyOs6aiq1wP1_BL-jvp-1" edge="1">
          <mxGeometry relative="1" as="geometry" />
        </mxCell>
        <mxCell id="ozyOs6aiq1wP1_BL-jvp-3" value="&#39;client&#39;&amp;nbsp;&lt;br&gt;executable&lt;br&gt;(go)" style="rounded=1;whiteSpace=wrap;html=1;" parent="WIyWlLk6GJQsqaUBKTNV-1" vertex="1">
          <mxGeometry x="540" y="190" width="90" height="60" as="geometry" />
        </mxCell>
        <mxCell id="ozyOs6aiq1wP1_BL-jvp-8" value="" style="edgeStyle=orthogonalEdgeStyle;rounded=0;orthogonalLoop=1;jettySize=auto;html=1;startArrow=classic;startFill=1;fillColor=#e51400;strokeColor=#B20000;strokeWidth=4;" parent="WIyWlLk6GJQsqaUBKTNV-1" source="ozyOs6aiq1wP1_BL-jvp-7" target="ozyOs6aiq1wP1_BL-jvp-3" edge="1">
          <mxGeometry relative="1" as="geometry" />
        </mxCell>
        <mxCell id="ozyOs6aiq1wP1_BL-jvp-7" value="&#39;g&#39;&lt;br&gt;library&lt;br&gt;(go)" style="rounded=1;whiteSpace=wrap;html=1;" parent="WIyWlLk6GJQsqaUBKTNV-1" vertex="1">
          <mxGeometry x="690" y="190" width="90" height="60" as="geometry" />
        </mxCell>
        <mxCell id="ozyOs6aiq1wP1_BL-jvp-10" value="" style="edgeStyle=orthogonalEdgeStyle;rounded=0;orthogonalLoop=1;jettySize=auto;html=1;startArrow=classic;startFill=1;fillColor=#e51400;strokeColor=#B20000;strokeWidth=4;" parent="WIyWlLk6GJQsqaUBKTNV-1" source="ozyOs6aiq1wP1_BL-jvp-9" target="ozyOs6aiq1wP1_BL-jvp-7" edge="1">
          <mxGeometry relative="1" as="geometry" />
        </mxCell>
        <mxCell id="ozyOs6aiq1wP1_BL-jvp-9" value="&#39;c&#39;&lt;br&gt;libcan.so&lt;br&gt;(C)" style="rounded=1;whiteSpace=wrap;html=1;" parent="WIyWlLk6GJQsqaUBKTNV-1" vertex="1">
          <mxGeometry x="836" y="190" width="90" height="60" as="geometry" />
        </mxCell>
        <mxCell id="ozyOs6aiq1wP1_BL-jvp-12" value="" style="edgeStyle=orthogonalEdgeStyle;rounded=0;orthogonalLoop=1;jettySize=auto;html=1;fillColor=#e51400;strokeColor=#B20000;startArrow=classic;startFill=1;strokeWidth=4;exitX=0.5;exitY=0;exitDx=0;exitDy=0;entryX=0.5;entryY=1;entryDx=0;entryDy=0;" parent="WIyWlLk6GJQsqaUBKTNV-1" source="ozyOs6aiq1wP1_BL-jvp-11" target="ozyOs6aiq1wP1_BL-jvp-9" edge="1">
          <mxGeometry relative="1" as="geometry">
            <mxPoint x="1050" y="280" as="targetPoint" />
          </mxGeometry>
        </mxCell>
        <mxCell id="ozyOs6aiq1wP1_BL-jvp-11" value="linux&lt;br&gt;VCAN" style="rounded=1;whiteSpace=wrap;html=1;" parent="WIyWlLk6GJQsqaUBKTNV-1" vertex="1">
          <mxGeometry x="692.5" y="340" width="120" height="60" as="geometry" />
        </mxCell>
        <mxCell id="ozyOs6aiq1wP1_BL-jvp-20" value="&#39;device&#39;&lt;br&gt;&amp;nbsp;executable&lt;br&gt;(go)" style="rounded=1;whiteSpace=wrap;html=1;" parent="WIyWlLk6GJQsqaUBKTNV-1" vertex="1">
          <mxGeometry x="567.5" y="520" width="90" height="60" as="geometry" />
        </mxCell>
        <mxCell id="ozyOs6aiq1wP1_BL-jvp-21" value="" style="edgeStyle=orthogonalEdgeStyle;rounded=0;orthogonalLoop=1;jettySize=auto;html=1;startArrow=classic;startFill=1;fillColor=#e51400;strokeColor=#B20000;strokeWidth=4;" parent="WIyWlLk6GJQsqaUBKTNV-1" source="ozyOs6aiq1wP1_BL-jvp-22" target="ozyOs6aiq1wP1_BL-jvp-20" edge="1">
          <mxGeometry relative="1" as="geometry" />
        </mxCell>
        <mxCell id="ozyOs6aiq1wP1_BL-jvp-22" value="&#39;g&#39;&lt;br&gt;library&lt;br&gt;(go)" style="rounded=1;whiteSpace=wrap;html=1;" parent="WIyWlLk6GJQsqaUBKTNV-1" vertex="1">
          <mxGeometry x="717.5" y="520" width="90" height="60" as="geometry" />
        </mxCell>
        <mxCell id="ozyOs6aiq1wP1_BL-jvp-23" value="" style="edgeStyle=orthogonalEdgeStyle;rounded=0;orthogonalLoop=1;jettySize=auto;html=1;startArrow=classic;startFill=1;fillColor=#e51400;strokeColor=#B20000;strokeWidth=4;" parent="WIyWlLk6GJQsqaUBKTNV-1" source="ozyOs6aiq1wP1_BL-jvp-24" target="ozyOs6aiq1wP1_BL-jvp-22" edge="1">
          <mxGeometry relative="1" as="geometry" />
        </mxCell>
        <mxCell id="ozyOs6aiq1wP1_BL-jvp-24" value="&#39;c&#39;&lt;br&gt;libcan.so&lt;br&gt;(C)" style="rounded=1;whiteSpace=wrap;html=1;" parent="WIyWlLk6GJQsqaUBKTNV-1" vertex="1">
          <mxGeometry x="867.5" y="520" width="90" height="60" as="geometry" />
        </mxCell>
        <mxCell id="ozyOs6aiq1wP1_BL-jvp-34" value="" style="edgeStyle=orthogonalEdgeStyle;rounded=0;orthogonalLoop=1;jettySize=auto;html=1;" parent="WIyWlLk6GJQsqaUBKTNV-1" source="ozyOs6aiq1wP1_BL-jvp-30" target="ozyOs6aiq1wP1_BL-jvp-24" edge="1">
          <mxGeometry relative="1" as="geometry" />
        </mxCell>
        <mxCell id="ozyOs6aiq1wP1_BL-jvp-30" value="&lt;font style=&quot;font-size: 14px;&quot;&gt;Device Simulator&lt;/font&gt;" style="text;html=1;strokeColor=none;fillColor=none;align=center;verticalAlign=middle;whiteSpace=wrap;rounded=0;" parent="WIyWlLk6GJQsqaUBKTNV-1" vertex="1">
          <mxGeometry x="682.5" y="480" width="140" height="30" as="geometry" />
        </mxCell>
        <mxCell id="ozyOs6aiq1wP1_BL-jvp-33" style="edgeStyle=orthogonalEdgeStyle;rounded=0;orthogonalLoop=1;jettySize=auto;html=1;entryX=0.5;entryY=1;entryDx=0;entryDy=0;startArrow=classic;startFill=1;fillColor=#e51400;strokeColor=#B20000;strokeWidth=4;exitX=0.5;exitY=0;exitDx=0;exitDy=0;" parent="WIyWlLk6GJQsqaUBKTNV-1" source="ozyOs6aiq1wP1_BL-jvp-30" target="ozyOs6aiq1wP1_BL-jvp-11" edge="1">
          <mxGeometry relative="1" as="geometry">
            <mxPoint x="502.5" y="475" as="sourcePoint" />
            <mxPoint x="502.5" y="415" as="targetPoint" />
          </mxGeometry>
        </mxCell>
      </root>
    </mxGraphModel>
  </diagram>
</mxfile>
